<svg width="217" height="260" viewBox="0 0 217 260" fill="none" xmlns="http://www.w3.org/2000/svg">
<path d="M27.3398 27.4219V23.9023H5.95703V5.17578H30.5605V1.65625H2.00586V50H5.95703V27.4219H27.3398ZM106.496 29.0156V22.6406C106.474 21.0026 106.319 19.3314 106.031 17.627C105.766 15.9004 105.356 14.2292 104.803 12.6133C104.227 11.0195 103.508 9.51432 102.645 8.09766C101.781 6.68099 100.752 5.45247 99.5566 4.41211C98.3613 3.34961 96.9889 2.51953 95.4395 1.92188C93.89 1.30208 92.1523 0.992188 90.2266 0.992188C88.3008 0.992188 86.5632 1.30208 85.0137 1.92188C83.4642 2.51953 82.0918 3.34961 80.8965 4.41211C79.7012 5.47461 78.6719 6.71419 77.8086 8.13086C76.9453 9.52539 76.2259 11.0306 75.6504 12.6465C75.097 14.2402 74.6764 15.9004 74.3887 17.627C74.123 19.3314 73.9792 21.0026 73.957 22.6406V29.0156C73.9792 30.6758 74.1341 32.3581 74.4219 34.0625C74.7096 35.7669 75.1302 37.416 75.6836 39.0098C76.2591 40.6257 76.9785 42.1419 77.8418 43.5586C78.7272 44.9531 79.7676 46.1816 80.9629 47.2441C82.1582 48.3066 83.5306 49.1478 85.0801 49.7676C86.6296 50.3652 88.3672 50.6641 90.293 50.6641C92.1966 50.6641 93.9232 50.3652 95.4727 49.7676C97.0221 49.1478 98.3945 48.3066 99.5898 47.2441C100.785 46.1816 101.814 44.9531 102.678 43.5586C103.541 42.1419 104.249 40.6367 104.803 39.043C105.356 37.4271 105.766 35.7669 106.031 34.0625C106.319 32.3581 106.474 30.6758 106.496 29.0156ZM102.578 22.5742V29.0156C102.556 30.2995 102.456 31.6387 102.279 33.0332C102.124 34.4056 101.848 35.7669 101.449 37.1172C101.051 38.4453 100.542 39.707 99.9219 40.9023C99.3021 42.0977 98.5384 43.1602 97.6309 44.0898C96.7233 44.9974 95.6608 45.7168 94.4434 46.248C93.2259 46.7793 91.8424 47.0449 90.293 47.0449C88.7214 47.0449 87.3268 46.7793 86.1094 46.248C84.9141 45.7168 83.8516 44.9974 82.9219 44.0898C82.0143 43.1602 81.2396 42.0977 80.5977 40.9023C79.9779 39.6849 79.4688 38.4121 79.0703 37.084C78.6719 35.7559 78.3841 34.4056 78.207 33.0332C78.0299 31.6387 77.9303 30.2995 77.9082 29.0156V22.5742C77.9303 21.3125 78.0299 19.9954 78.207 18.623C78.3841 17.2507 78.6719 15.9004 79.0703 14.5723C79.4688 13.222 79.9779 11.9492 80.5977 10.7539C81.2174 9.55859 81.9922 8.50716 82.9219 7.59961C83.8294 6.69206 84.8809 5.97266 86.0762 5.44141C87.2936 4.88802 88.6771 4.61133 90.2266 4.61133C91.776 4.61133 93.1595 4.87695 94.377 5.4082C95.5944 5.93945 96.6569 6.65885 97.5645 7.56641C98.472 8.47396 99.2357 9.53646 99.8555 10.7539C100.497 11.9492 101.018 13.2109 101.416 14.5391C101.814 15.8672 102.102 17.2174 102.279 18.5898C102.456 19.9622 102.556 21.2904 102.578 22.5742ZM17.6445 99.7793L28.2363 120H32.3867L32.4199 119.568L21.3633 98.8496C22.7578 98.2741 24.0306 97.5768 25.1816 96.7578C26.3548 95.9388 27.362 94.998 28.2031 93.9355C29.0443 92.8509 29.6973 91.6445 30.1621 90.3164C30.6491 88.9883 30.8926 87.5052 30.8926 85.8672C30.8926 83.6094 30.4831 81.6061 29.6641 79.8574C28.8672 78.1087 27.7715 76.6367 26.377 75.4414C24.9603 74.224 23.3112 73.3053 21.4297 72.6855C19.5482 72.0436 17.5449 71.7005 15.4199 71.6562H1.77344V120H5.69141V99.7793H17.6445ZM5.69141 96.3594V75.0762H15.4199C17.0358 75.0983 18.541 75.3529 19.9355 75.8398C21.3522 76.3268 22.5697 77.0352 23.5879 77.9648C24.6283 78.8724 25.4362 79.9902 26.0117 81.3184C26.6094 82.6465 26.9082 84.1517 26.9082 85.834C26.9082 87.3835 26.6315 88.8001 26.0781 90.084C25.5469 91.3457 24.7943 92.4414 23.8203 93.3711C22.8685 94.2786 21.7396 94.998 20.4336 95.5293C19.1497 96.0605 17.7552 96.3372 16.25 96.3594H5.69141ZM5.6582 141.656H0.544922V190H4.42969V168.584L4.16406 147.799L14.0586 175.457H16.6484L27.373 147.301L27.1074 168.584V190H30.9922V141.656H25.7793L15.3867 168.916L5.6582 141.656ZM1.47461 260H16.6816C18.6738 259.956 20.5775 259.624 22.3926 259.004C24.2298 258.384 25.8457 257.488 27.2402 256.314C28.6348 255.163 29.7305 253.758 30.5273 252.098C31.3464 250.415 31.7448 248.501 31.7227 246.354C31.7227 244.893 31.4792 243.531 30.9922 242.27C30.5273 240.986 29.8743 239.846 29.0332 238.85C28.1921 237.876 27.1738 237.035 25.9785 236.326C24.8053 235.596 23.5658 235.087 22.2598 234.799L22.2266 234.666C23.4219 234.179 24.4733 233.637 25.3809 233.039C26.3105 232.419 27.1296 231.678 27.8379 230.814C28.5241 229.973 29.0553 229.01 29.4316 227.926C29.8301 226.841 30.0404 225.624 30.0625 224.273C30.0625 222.082 29.6309 220.201 28.7676 218.629C27.9043 217.035 26.7533 215.729 25.3145 214.711C23.8757 213.693 22.2266 212.94 20.3672 212.453C18.5299 211.944 16.6263 211.678 14.6562 211.656H1.47461V260ZM5.42578 236.758H17.0801C18.4967 236.802 19.847 237.046 21.1309 237.488C22.4147 237.931 23.5547 238.562 24.5508 239.381C25.5247 240.2 26.2995 241.207 26.875 242.402C27.4505 243.576 27.7383 244.915 27.7383 246.42C27.7383 247.992 27.4395 249.397 26.8418 250.637C26.2663 251.854 25.4694 252.895 24.4512 253.758C23.4551 254.599 22.293 255.263 20.9648 255.75C19.6367 256.215 18.2311 256.458 16.748 256.48H5.42578V236.758ZM5.42578 233.305V215.176H14.7559C16.1725 215.198 17.556 215.386 18.9062 215.74C20.2786 216.072 21.4961 216.592 22.5586 217.301C23.6211 218.031 24.4622 218.961 25.082 220.09C25.724 221.219 26.0449 222.591 26.0449 224.207C26.0449 225.734 25.735 227.062 25.1152 228.191C24.5176 229.32 23.7096 230.261 22.6914 231.014C21.6732 231.766 20.5111 232.331 19.2051 232.707C17.8991 233.083 16.5599 233.283 15.1875 233.305H5.42578ZM89.7617 237.953L76.9785 211.656H72.3633L87.8691 241.805L87.9355 260H91.6543L91.6875 241.805L107.227 211.656H102.678L89.7617 237.953ZM216.531 215.176V211.656H181.801V215.176H197.24L197.207 260H201.092V215.176H216.531Z" fill="#4B3020"/>
</svg>
